/* XPM */
static char *result[] = {
/* columns rows colors chars-per-pixel */
"80 80 5 1 ",
"  c #141B1B",
". c #E46D3A",
"X c #965340",
"o c #EF914F",
"O c None",
/* pixels */
"OOOOOOOOOOOOOOOOOOOOOOOOOOOOOOOOOOOOOOOOOOOOOOOOOOOOOOOOOOOOOOOOOOOOOOOOOOOOOOOO",
"OOOOOOOOOOOOOOOOOOOOOOOOOOOOOOOOOOOOOOOOOOOOOOOOOOOOOOOOOOOOOOOOOOOOOOOOOOOOOOOO",
"OOOOOOOOOOOOOOOOOOOOOOOOOOOOOOOOOOOOOOOOOOOOOOOOOOOOOOOOOOOOOOOOOOOOOOOOOOOOOOOO",
"OOOOOOOOOOOOOOOOOOOOOOOOOOOOOOOOOOOOOOOOOOOOOOOOOOOOOOOOOOOOOOOOOOOOOOOOOOOOOOOO",
"OOOOOOOOOOOOOOOOOOOOOOOOOOOOOOOOOOOOOOOOOOOOOOOOOOOOOOOOOOOOOOOOOOOOOOOOOOOOOOOO",
"OOOOOOOOOOOOOOOOOOOOOOOOOOOOOOOOOOOOOOOOOOOOOOOOOOOOOOOOOOOOOOOOOOOOOOOOOOOOOOOO",
"OOOOOOOOOOOOOOOOOOOOOOOOOOOOOOOOOOOOOOOOOOOOOOOOOOOOOOOOOOOOOOOOOOOOOOOOOOOOOOOO",
"OOOOOOOOOOOOOOOOOOOOOOOOOOOOOOOOOOOOOOOOOOOOOOOOOOOOOOOOOOOOOOOOOOOOOOOOOOOOOOOO",
"OOOOOOOOOOOOOOOOOOOOOOOOOOOOOOOOOOOOOOOOOOOOOOOOOOOOOOOOOOOOOOOOOOOOOOOOOOOOOOOO",
"OOOOOOOOOOOOOOOOOOOOOOOOOOOOOOOOOOOOOOOOOOOOOOOOOOOOOOOOOOOOOOOOOOOOOOOOOOOOOOOO",
"OOOOOOOOOO............................................................OOOOOOOOOO",
"OOOOOOOOOO............................................................OOOOOOOOOO",
"OOOOOOOOOO............................................................OOOOOOOOOO",
"OOOOOOOOOO............................................................OOOOOOOOOO",
"OOOOOOOOOO............................................................OOOOOOOOOO",
"OOOOO     .....XXXXXXXXXXXXXXXXXXXXXXXXXXXXXXXXXXXXXXXXXXXXXXXXXX.....     OOOOO",
"OOOOO     .....XXXXXXXXXXXXXXXXXXXXXXXXXXXXXXXXXXXXXXXXXXXXXXXXXX.....     OOOOO",
"OOOOO     .....XXXXXXXXXXXXXXXXXXXXXXXXXXXXXXXXXXXXXXXXXXXXXXXXXX.....     OOOOO",
"OOOOO     .....XXXXXXXXXXXXXXXXXXXXXXXXXXXXXXXXXXXXXXXXXXXXXXXXXX.....     OOOOO",
"OOOOO     .....XXXXXXXXXXXXXXXXXXXXXXXXXXXXXXXXXXXXXXXXXXXXXXXXXX.....     OOOOO",
"OOOOO     XXXXX.....oooooooooo.....ooooo.........................XXXXX     OOOOO",
"OOOOO     XXXXX.....oooooooooo.....ooooo.........................XXXXX     OOOOO",
"OOOOO     XXXXX.....oooooooooo.....ooooo.........................XXXXX     OOOOO",
"OOOOO     XXXXX.....oooooooooo.....ooooo.........................XXXXX     OOOOO",
"OOOOO     XXXXX.....oooooooooo.....ooooo.........................XXXXX     OOOOO",
"OOOOO     XXXXX.....oooooooooo.....ooooo.....oooooooooooooooooooo.....     OOOOO",
"OOOOO     XXXXX.....oooooooooo.....ooooo.....oooooooooooooooooooo.....     OOOOO",
"OOOOO     XXXXX.....oooooooooo.....ooooo.....oooooooooooooooooooo.....     OOOOO",
"OOOOO     XXXXX.....oooooooooo.....ooooo.....oooooooooooooooooooo.....     OOOOO",
"OOOOO     XXXXX.....oooooooooo.....ooooo.....oooooooooooooooooooo.....     OOOOO",
"OOOOO     XXXXX.....oooooooooooooooooooo.....oooooXXXXXXXXXXXXXXX.....     OOOOO",
"OOOOO     XXXXX.....oooooooooooooooooooo.....oooooXXXXXXXXXXXXXXX.....     OOOOO",
"OOOOO     XXXXX.....oooooooooooooooooooo.....oooooXXXXXXXXXXXXXXX.....     OOOOO",
"OOOOO     XXXXX.....oooooooooooooooooooo.....oooooXXXXXXXXXXXXXXX.....     OOOOO",
"OOOOO     XXXXX.....oooooooooooooooooooo.....oooooXXXXXXXXXXXXXXX.....     OOOOO",
"OOOOO     XXXXX.....oooooooooo.....ooooo.....oooooooooooooooXXXXX.....     OOOOO",
"OOOOO     XXXXX.....oooooooooo.....ooooo.....oooooooooooooooXXXXX.....     OOOOO",
"OOOOO     XXXXX.....oooooooooo.....ooooo.....oooooooooooooooXXXXX.....     OOOOO",
"OOOOO     XXXXX.....oooooooooo.....ooooo.....oooooooooooooooXXXXX.....     OOOOO",
"OOOOO     XXXXX.....oooooooooo.....ooooo.....oooooooooooooooXXXXX.....     OOOOO",
"OOOOO     XXXXX.....oooooooooooooooooooo.....oooooooooooooooXXXXX.....     OOOOO",
"OOOOO     XXXXX.....oooooooooooooooooooo.....oooooooooooooooXXXXX.....     OOOOO",
"OOOOO     XXXXX.....oooooooooooooooooooo.....oooooooooooooooXXXXX.....     OOOOO",
"OOOOO     XXXXX.....oooooooooooooooooooo.....oooooooooooooooXXXXX.....     OOOOO",
"OOOOO     XXXXX.....oooooooooooooooooooo.....oooooooooooooooXXXXX.....     OOOOO",
"OOOOO     XXXXX.....oooooooooooooooooooo.....oooooooooooooooXXXXX.....     OOOOO",
"OOOOO     XXXXX.....oooooooooooooooooooo.....oooooooooooooooXXXXX.....     OOOOO",
"OOOOO     XXXXX.....oooooooooooooooooooo.....oooooooooooooooXXXXX.....     OOOOO",
"OOOOO     XXXXX.....oooooooooooooooooooo.....oooooooooooooooXXXXX.....     OOOOO",
"OOOOO     XXXXX.....oooooooooooooooooooo.....oooooooooooooooXXXXX.....     OOOOO",
"OOOOO     XXXXX.....oooooooooooooooooooo.....oooooXXXXXXXXXXXXXXX.....     OOOOO",
"OOOOO     XXXXX.....oooooooooooooooooooo.....oooooXXXXXXXXXXXXXXX.....     OOOOO",
"OOOOO     XXXXX.....oooooooooooooooooooo.....oooooXXXXXXXXXXXXXXX.....     OOOOO",
"OOOOO     XXXXX.....oooooooooooooooooooo.....oooooXXXXXXXXXXXXXXX.....     OOOOO",
"OOOOO     XXXXX.....oooooooooooooooooooo.....oooooXXXXXXXXXXXXXXX.....     OOOOO",
"OOOOO     XXXXX.....ooooo.....oooooooooo.....oooooooooooooooooooo.....     OOOOO",
"OOOOO     XXXXX.....ooooo.....oooooooooo.....oooooooooooooooooooo.....     OOOOO",
"OOOOO     XXXXX.....ooooo.....oooooooooo.....oooooooooooooooooooo.....     OOOOO",
"OOOOO     XXXXX.....ooooo.....oooooooooo.....oooooooooooooooooooo.....     OOOOO",
"OOOOO     XXXXX.....ooooo.....oooooooooo.....oooooooooooooooooooo.....     OOOOO",
"OOOOO     XXXXX.....ooooo.....oooooooooo..............................     OOOOO",
"OOOOO     XXXXX.....ooooo.....oooooooooo..............................     OOOOO",
"OOOOO     XXXXX.....ooooo.....oooooooooo..............................     OOOOO",
"OOOOO     XXXXX.....ooooo.....oooooooooo..............................     OOOOO",
"OOOOO     XXXXX.....ooooo.....oooooooooo..............................     OOOOO",
"OOOOO     XXXXX.....ooooo.....oooooooooo.....oooooooooooooooooooo.....     OOOOO",
"OOOOO     XXXXX.....ooooo.....oooooooooo.....oooooooooooooooooooo.....     OOOOO",
"OOOOO     XXXXX.....ooooo.....oooooooooo.....oooooooooooooooooooo.....     OOOOO",
"OOOOO     XXXXX.....ooooo.....oooooooooo.....oooooooooooooooooooo.....     OOOOO",
"OOOOO     XXXXX.....ooooo.....oooooooooo.....oooooooooooooooooooo.....     OOOOO",
"OOOOOOOOOO                                                            OOOOOOOOOO",
"OOOOOOOOOO                                                            OOOOOOOOOO",
"OOOOOOOOOO                                                            OOOOOOOOOO",
"OOOOOOOOOO                                                            OOOOOOOOOO",
"OOOOOOOOOO                                                            OOOOOOOOOO",
"OOOOOOOOOOOOOOOOOOOOOOOOOOOOOOOOOOOOOOOOOOOOOOOOOOOOOOOOOOOOOOOOOOOOOOOOOOOOOOOO",
"OOOOOOOOOOOOOOOOOOOOOOOOOOOOOOOOOOOOOOOOOOOOOOOOOOOOOOOOOOOOOOOOOOOOOOOOOOOOOOOO",
"OOOOOOOOOOOOOOOOOOOOOOOOOOOOOOOOOOOOOOOOOOOOOOOOOOOOOOOOOOOOOOOOOOOOOOOOOOOOOOOO",
"OOOOOOOOOOOOOOOOOOOOOOOOOOOOOOOOOOOOOOOOOOOOOOOOOOOOOOOOOOOOOOOOOOOOOOOOOOOOOOOO",
"OOOOOOOOOOOOOOOOOOOOOOOOOOOOOOOOOOOOOOOOOOOOOOOOOOOOOOOOOOOOOOOOOOOOOOOOOOOOOOOO"
};
