/* XPM */
static char *result[] = {
/* columns rows colors chars-per-pixel */
"80 80 3 1 ",
"  c #5F7160",
". c #778570",
"X c #8D977F",
/* pixels */
"XXXXXXXXXXXXXXX     .....     .........................     .....     XXXXXXXXXX",
"XXXXXXXXXXXXXXX     .....     .........................     .....     XXXXXXXXXX",
"XXXXXXXXXXXXXXX     .....     .........................     .....     XXXXXXXXXX",
"XXXXXXXXXXXXXXX     .....     .........................     .....     XXXXXXXXXX",
"XXXXXXXXXXXXXXX     .....     .........................     .....     XXXXXXXXXX",
"XXXXXXXXXXXXXXX     .....     .........................     .....     XXXXXXXXXX",
"XXXXXXXXXXXXXXX     .....     .........................     .....     XXXXXXXXXX",
"XXXXXXXXXXXXXXX     .....     .........................     .....     XXXXXXXXXX",
"XXXXXXXXXXXXXXX     .....     .........................     .....     XXXXXXXXXX",
"XXXXXXXXXXXXXXX     .....     .........................     .....     XXXXXXXXXX",
"XXXXXXXXXX     ..........     .........................     ..........          ",
"XXXXXXXXXX     ..........     .........................     ..........          ",
"XXXXXXXXXX     ..........     .........................     ..........          ",
"XXXXXXXXXX     ..........     .........................     ..........          ",
"XXXXXXXXXX     ..........     .........................     ..........          ",
"          ..........     ...................................     ...............",
"          ..........     ...................................     ...............",
"          ..........     ...................................     ...............",
"          ..........     ...................................     ...............",
"          ..........     ...................................     ...............",
"...............     .............................................               ",
"...............     .............................................               ",
"...............     .............................................               ",
"...............     .............................................               ",
"...............     .............................................               ",
"               .................................................................",
"               .................................................................",
"               .................................................................",
"               .................................................................",
"               .................................................................",
"................................................................................",
"................................................................................",
"................................................................................",
"................................................................................",
"................................................................................",
"................................................................................",
"................................................................................",
"................................................................................",
"................................................................................",
"................................................................................",
"................................................................................",
"................................................................................",
"................................................................................",
"................................................................................",
"................................................................................",
"................................................................................",
"................................................................................",
"................................................................................",
"................................................................................",
"................................................................................",
".................................................................               ",
".................................................................               ",
".................................................................               ",
".................................................................               ",
".................................................................               ",
"               .............................................     ...............",
"               .............................................     ...............",
"               .............................................     ...............",
"               .............................................     ...............",
"               .............................................     ...............",
"...............     ...................................     ..........          ",
"...............     ...................................     ..........          ",
"...............     ...................................     ..........          ",
"...............     ...................................     ..........          ",
"...............     ...................................     ..........          ",
"          ..........     .........................     ..........     XXXXXXXXXX",
"          ..........     .........................     ..........     XXXXXXXXXX",
"          ..........     .........................     ..........     XXXXXXXXXX",
"          ..........     .........................     ..........     XXXXXXXXXX",
"          ..........     .........................     ..........     XXXXXXXXXX",
"XXXXXXXXXX     .....     .........................     .....     XXXXXXXXXXXXXXX",
"XXXXXXXXXX     .....     .........................     .....     XXXXXXXXXXXXXXX",
"XXXXXXXXXX     .....     .........................     .....     XXXXXXXXXXXXXXX",
"XXXXXXXXXX     .....     .........................     .....     XXXXXXXXXXXXXXX",
"XXXXXXXXXX     .....     .........................     .....     XXXXXXXXXXXXXXX",
"XXXXXXXXXX     .....     .........................     .....     XXXXXXXXXXXXXXX",
"XXXXXXXXXX     .....     .........................     .....     XXXXXXXXXXXXXXX",
"XXXXXXXXXX     .....     .........................     .....     XXXXXXXXXXXXXXX",
"XXXXXXXXXX     .....     .........................     .....     XXXXXXXXXXXXXXX",
"XXXXXXXXXX     .....     .........................     .....     XXXXXXXXXXXXXXX"
};
