/* XPM */
static char *result[] = {
/* columns rows colors chars-per-pixel */
"30 70 8 1 ",
"  c #141B1B",
". c #965340",
"X c #A3754E",
"o c #8D977F",
"O c #FFAD5D",
"+ c #ABC2BC",
"@ c #F2EAF1",
"# c None",
/* pixels */
"#####          ###############",
"#####          ###############",
"#####          ###############",
"#####          ###############",
"#####          ###############",
"#####     @@@@@     ##########",
"#####     @@@@@     ##########",
"#####     @@@@@     ##########",
"#####     @@@@@     ##########",
"#####     @@@@@     ##########",
"#####     +++++@@@@@     #####",
"#####     +++++@@@@@     #####",
"#####     +++++@@@@@     #####",
"#####     +++++@@@@@     #####",
"#####     +++++@@@@@     #####",
"#####     +++++@@@@@     #####",
"#####     +++++@@@@@     #####",
"#####     +++++@@@@@     #####",
"#####     +++++@@@@@     #####",
"#####     +++++@@@@@     #####",
"#####     +++++@@@@@     #####",
"#####     +++++@@@@@     #####",
"#####     +++++@@@@@     #####",
"#####     +++++@@@@@     #####",
"#####     +++++@@@@@     #####",
"#####     ++++++++++     #####",
"#####     ++++++++++     #####",
"#####     ++++++++++     #####",
"#####     ++++++++++     #####",
"#####     ++++++++++     #####",
"#####     +++++@@@@@     #####",
"#####     +++++@@@@@     #####",
"#####     +++++@@@@@     #####",
"#####     +++++@@@@@     #####",
"#####     +++++@@@@@     #####",
"#####     oooooooooo     #####",
"#####     oooooooooo     #####",
"#####     oooooooooo     #####",
"#####     oooooooooo     #####",
"#####     oooooooooo     #####",
"     OOOOOOOOOOOOOOOOOOOO     ",
"     OOOOOOOOOOOOOOOOOOOO     ",
"     OOOOOOOOOOOOOOOOOOOO     ",
"     OOOOOOOOOOOOOOOOOOOO     ",
"     OOOOOOOOOOOOOOOOOOOO     ",
"     @@@@@@@@@@@@@@@@@@@@     ",
"     @@@@@@@@@@@@@@@@@@@@     ",
"     @@@@@@@@@@@@@@@@@@@@     ",
"     @@@@@@@@@@@@@@@@@@@@     ",
"     @@@@@@@@@@@@@@@@@@@@     ",
"########    .....    #########",
"########    .....    #########",
"########    .....    #########",
"########    .....    #########",
"########    .....    #########",
"########    XXXXX    #########",
"########    XXXXX    #########",
"########    XXXXX    #########",
"########    XXXXX    #########",
"########    XXXXX    #########",
"########    OOOOO    #########",
"########    OOOOO    #########",
"########    OOOOO    #########",
"########    OOOOO    #########",
"########    OOOOO    #########",
"########             #########",
"########             #########",
"########             #########",
"########             #########",
"##############################"
};
