/* XPM */
static char *result[] = {
/* columns rows colors chars-per-pixel */
"80 80 5 1 ",
"  c #141B1B",
". c #5F7160",
"X c #778570",
"o c #8D977F",
"O c None",
/* pixels */
"OOOOOOOOOOOOOOOOOOOOOOOOOOOOOOOOOOOOOOOOOOOOOOOOOOOOOOOOOOOOOOOOOOOOOOOOOOOOOOOO",
"OOOOOOOOOOOOOOOOOOOOOOOOOOOOOOOOOOOOOOOOOOOOOOOOOOOOOOOOOOOOOOOOOOOOOOOOOOOOOOOO",
"OOOOOOOOOOOOOOOOOOOOOOOOOOOOOOOOOOOOOOOOOOOOOOOOOOOOOOOOOOOOOOOOOOOOOOOOOOOOOOOO",
"OOOOOOOOOOOOOOOOOOOOOOOOOOOOOOOOOOOOOOOOOOOOOOOOOOOOOOOOOOOOOOOOOOOOOOOOOOOOOOOO",
"OOOOOOOOOOOOOOOOOOOOOOOOOOOOOOOOOOOOOOOOOOOOOOOOOOOOOOOOOOOOOOOOOOOOOOOOOOOOOOOO",
"OOOOOOOOOOOOOOOOOOOOOOOOOOOOOOOOOOOOOOOOOOOOOOOOOOOOOOOOOOOOOOOOOOOOOOOOOOOOOOOO",
"OOOOOOOOOOOOOOOOOOOOOOOOOOOOOOOOOOOOOOOOOOOOOOOOOOOOOOOOOOOOOOOOOOOOOOOOOOOOOOOO",
"OOOOOOOOOOOOOOOOOOOOOOOOOOOOOOOOOOOOOOOOOOOOOOOOOOOOOOOOOOOOOOOOOOOOOOOOOOOOOOOO",
"OOOOOOOOOOOOOOOOOOOOOOOOOOOOOOOOOOOOOOOOOOOOOOOOOOOOOOOOOOOOOOOOOOOOOOOOOOOOOOOO",
"OOOOOOOOOOOOOOOOOOOOOOOOOOOOOOOOOOOOOOOOOOOOOOOOOOOOOOOOOOOOOOOOOOOOOOOOOOOOOOOO",
"OOOOOOOOOOXXXXXXXXXXXXXXXXXXXXXXXXXXXXXXXXXXXXXXXXXXXXXXXXXXXXXXXXXXXXOOOOOOOOOO",
"OOOOOOOOOOXXXXXXXXXXXXXXXXXXXXXXXXXXXXXXXXXXXXXXXXXXXXXXXXXXXXXXXXXXXXOOOOOOOOOO",
"OOOOOOOOOOXXXXXXXXXXXXXXXXXXXXXXXXXXXXXXXXXXXXXXXXXXXXXXXXXXXXXXXXXXXXOOOOOOOOOO",
"OOOOOOOOOOXXXXXXXXXXXXXXXXXXXXXXXXXXXXXXXXXXXXXXXXXXXXXXXXXXXXXXXXXXXXOOOOOOOOOO",
"OOOOOOOOOOXXXXXXXXXXXXXXXXXXXXXXXXXXXXXXXXXXXXXXXXXXXXXXXXXXXXXXXXXXXXOOOOOOOOOO",
"OOOOOXXXXXXXXXXXXXXXXXXXXXXXXXXXXXXXXXXXXXXXXXXXXXXXXXXXXXXXXXXXXXXXXXXXXXXOOOOO",
"OOOOOXXXXXXXXXXXXXXXXXXXXXXXXXXXXXXXXXXXXXXXXXXXXXXXXXXXXXXXXXXXXXXXXXXXXXXOOOOO",
"OOOOOXXXXXXXXXXXXXXXXXXXXXXXXXXXXXXXXXXXXXXXXXXXXXXXXXXXXXXXXXXXXXXXXXXXXXXOOOOO",
"OOOOOXXXXXXXXXXXXXXXXXXXXXXXXXXXXXXXXXXXXXXXXXXXXXXXXXXXXXXXXXXXXXXXXXXXXXXOOOOO",
"OOOOOXXXXXXXXXXXXXXXXXXXXXXXXXXXXXXXXXXXXXXXXXXXXXXXXXXXXXXXXXXXXXXXXXXXXXXOOOOO",
"OOOOOXXXXX                                                            XXXXXOOOOO",
"OOOOOXXXXX                                                            XXXXXOOOOO",
"OOOOOXXXXX                                                            XXXXXOOOOO",
"OOOOOXXXXX                                                            XXXXXOOOOO",
"OOOOOXXXXX                                                            XXXXXOOOOO",
"OOOOO     ooooooooooooooo                                                  OOOOO",
"OOOOO     ooooooooooooooo                                                  OOOOO",
"OOOOO     ooooooooooooooo                                                  OOOOO",
"OOOOO     ooooooooooooooo                                                  OOOOO",
"OOOOO     ooooooooooooooo                                                  OOOOO",
"OOOOO     ooooooooooooooo                                                  OOOOO",
"OOOOO     ooooooooooooooo                                                  OOOOO",
"OOOOO     ooooooooooooooo                                                  OOOOO",
"OOOOO     ooooooooooooooo                                                  OOOOO",
"OOOOO     ooooooooooooooo                                                  OOOOO",
"OOOOO     ooooooooooooooo.....XXXXXXXXXXXXXXX                              OOOOO",
"OOOOO     ooooooooooooooo.....XXXXXXXXXXXXXXX                              OOOOO",
"OOOOO     ooooooooooooooo.....XXXXXXXXXXXXXXX                              OOOOO",
"OOOOO     ooooooooooooooo.....XXXXXXXXXXXXXXX                              OOOOO",
"OOOOO     ooooooooooooooo.....XXXXXXXXXXXXXXX                              OOOOO",
"OOOOO     ooooooooooooooo.....XXXXXXXXXXXXXXX                              OOOOO",
"OOOOO     ooooooooooooooo.....XXXXXXXXXXXXXXX                              OOOOO",
"OOOOO     ooooooooooooooo.....XXXXXXXXXXXXXXX                              OOOOO",
"OOOOO     ooooooooooooooo.....XXXXXXXXXXXXXXX                              OOOOO",
"OOOOO     ooooooooooooooo.....XXXXXXXXXXXXXXX                              OOOOO",
"OOOOO     ooooooooooooooo.....XXXXXXXXXXXXXXX                              OOOOO",
"OOOOO     ooooooooooooooo.....XXXXXXXXXXXXXXX                              OOOOO",
"OOOOO     ooooooooooooooo.....XXXXXXXXXXXXXXX                              OOOOO",
"OOOOO     ooooooooooooooo.....XXXXXXXXXXXXXXX                              OOOOO",
"OOOOO     ooooooooooooooo.....XXXXXXXXXXXXXXX                              OOOOO",
"OOOOO     ooooooooooooooo.....XXXXXXXXXXXXXXX...............               OOOOO",
"OOOOO     ooooooooooooooo.....XXXXXXXXXXXXXXX...............               OOOOO",
"OOOOO     ooooooooooooooo.....XXXXXXXXXXXXXXX...............               OOOOO",
"OOOOO     ooooooooooooooo.....XXXXXXXXXXXXXXX...............               OOOOO",
"OOOOO     ooooooooooooooo.....XXXXXXXXXXXXXXX...............               OOOOO",
"OOOOO     ooooooooooooooo.....XXXXXXXXXXXXXXX...............               OOOOO",
"OOOOO     ooooooooooooooo.....XXXXXXXXXXXXXXX...............               OOOOO",
"OOOOO     ooooooooooooooo.....XXXXXXXXXXXXXXX...............               OOOOO",
"OOOOO     ooooooooooooooo.....XXXXXXXXXXXXXXX...............               OOOOO",
"OOOOO     ooooooooooooooo.....XXXXXXXXXXXXXXX...............               OOOOO",
"OOOOO     ooooooooooooooo.....XXXXXXXXXXXXXXX...............               OOOOO",
"OOOOO     ooooooooooooooo.....XXXXXXXXXXXXXXX...............               OOOOO",
"OOOOO     ooooooooooooooo.....XXXXXXXXXXXXXXX...............               OOOOO",
"OOOOO     ooooooooooooooo.....XXXXXXXXXXXXXXX...............               OOOOO",
"OOOOO     ooooooooooooooo.....XXXXXXXXXXXXXXX...............               OOOOO",
"OOOOO     ....................XXXXXXXXXXXXXXX...............               OOOOO",
"OOOOO     ....................XXXXXXXXXXXXXXX...............               OOOOO",
"OOOOO     ....................XXXXXXXXXXXXXXX...............               OOOOO",
"OOOOO     ....................XXXXXXXXXXXXXXX...............               OOOOO",
"OOOOO     ....................XXXXXXXXXXXXXXX...............               OOOOO",
"OOOOOOOOOO                                                            OOOOOOOOOO",
"OOOOOOOOOO                                                            OOOOOOOOOO",
"OOOOOOOOOO                                                            OOOOOOOOOO",
"OOOOOOOOOO                                                            OOOOOOOOOO",
"OOOOOOOOOO                                                            OOOOOOOOOO",
"OOOOOOOOOOOOOOOOOOOOOOOOOOOOOOOOOOOOOOOOOOOOOOOOOOOOOOOOOOOOOOOOOOOOOOOOOOOOOOOO",
"OOOOOOOOOOOOOOOOOOOOOOOOOOOOOOOOOOOOOOOOOOOOOOOOOOOOOOOOOOOOOOOOOOOOOOOOOOOOOOOO",
"OOOOOOOOOOOOOOOOOOOOOOOOOOOOOOOOOOOOOOOOOOOOOOOOOOOOOOOOOOOOOOOOOOOOOOOOOOOOOOOO",
"OOOOOOOOOOOOOOOOOOOOOOOOOOOOOOOOOOOOOOOOOOOOOOOOOOOOOOOOOOOOOOOOOOOOOOOOOOOOOOOO",
"OOOOOOOOOOOOOOOOOOOOOOOOOOOOOOOOOOOOOOOOOOOOOOOOOOOOOOOOOOOOOOOOOOOOOOOOOOOOOOOO"
};
