/* XPM */
static char *result[] = {
/* columns rows colors chars-per-pixel */
"80 80 9 1 ",
"  c #141B1B",
". c #3B3643",
"X c #5F7160",
"o c #D14B34",
"O c #EF914F",
"+ c #F1C471",
"@ c #79B8CE",
"# c #F2EAF1",
"$ c None",
/* pixels */
"$$$$$$$$$$$$$$$$$$$$$$$$$$$$$$$$$$$$$$$$$$$$$$$$$$$$$$$$$$$$$$$$$$$$$$$$$$$$$$$$",
"$$$$$$$$$$$$$$$$$$$$$$$$$$$$$$$$$$$$$$$$$$$$$$$$$$$$$$$$$$$$$$$$$$$$$$$$$$$$$$$$",
"$$$$$$$$$$$$$$$$$$$$$$$$$$$$$$$$$$$$$$$$$$$$$$$$$$$$$$$$$$$$$$$$$$$$$$$$$$$$$$$$",
"$$$$$$$$$$$$$$$$$$$$$$$$$$$$$$$$$$$$$$$$$$$$$$$$$$$$$$$$$$$$$$$$$$$$$$$$$$$$$$$$",
"$$$$$$$$$$$$$$$$$$$$$$$$$$$$$$$$$$$$$$$$$$$$$$$$$$$$$$$$$$$$$$$$$$$$$$$$$$$$$$$$",
"$$$$$$$$$$$$$$$$$$$$                                        $$$$$$$$$$$$$$$$$$$$",
"$$$$$$$$$$$$$$$$$$$$                                        $$$$$$$$$$$$$$$$$$$$",
"$$$$$$$$$$$$$$$$$$$$                                        $$$$$$$$$$$$$$$$$$$$",
"$$$$$$$$$$$$$$$$$$$$                                        $$$$$$$$$$$$$$$$$$$$",
"$$$$$$$$$$$$$$$$$$$$                                        $$$$$$$$$$$$$$$$$$$$",
"$$$$$$$$$$$$$$$     @@@@@@@@@@##############################          $$$$$$$$$$",
"$$$$$$$$$$$$$$$     @@@@@@@@@@##############################          $$$$$$$$$$",
"$$$$$$$$$$$$$$$     @@@@@@@@@@##############################          $$$$$$$$$$",
"$$$$$$$$$$$$$$$     @@@@@@@@@@##############################          $$$$$$$$$$",
"$$$$$$$$$$$$$$$     @@@@@@@@@@##############################          $$$$$$$$$$",
"$$$$$$$$$$     @@@@@@@@@@@@@@@##############################@@@@@+++++     $$$$$",
"$$$$$$$$$$     @@@@@@@@@@@@@@@##############################@@@@@+++++     $$$$$",
"$$$$$$$$$$     @@@@@@@@@@@@@@@##############################@@@@@+++++     $$$$$",
"$$$$$$$$$$     @@@@@@@@@@@@@@@##############################@@@@@+++++     $$$$$",
"$$$$$$$$$$     @@@@@@@@@@@@@@@##############################@@@@@+++++     $$$$$",
"$$$$$$$$$$     @@@@@@@@@@@@@@@@@@@@###############+++++@@@@@@@@@@+++++     $$$$$",
"$$$$$$$$$$     @@@@@@@@@@@@@@@@@@@@###############+++++@@@@@@@@@@+++++     $$$$$",
"$$$$$$$$$$     @@@@@@@@@@@@@@@@@@@@###############+++++@@@@@@@@@@+++++     $$$$$",
"$$$$$$$$$$     @@@@@@@@@@@@@@@@@@@@###############+++++@@@@@@@@@@+++++     $$$$$",
"$$$$$$$$$$     @@@@@@@@@@@@@@@@@@@@###############+++++@@@@@@@@@@+++++     $$$$$",
"$$$$$$$$$$     @@@@@@@@@@@@@@@@@@@@@@@@@@@@@@@@@@@++++++++++++++++++++     $$$$$",
"$$$$$$$$$$     @@@@@@@@@@@@@@@@@@@@@@@@@@@@@@@@@@@++++++++++++++++++++     $$$$$",
"$$$$$$$$$$     @@@@@@@@@@@@@@@@@@@@@@@@@@@@@@@@@@@++++++++++++++++++++     $$$$$",
"$$$$$$$$$$     @@@@@@@@@@@@@@@@@@@@@@@@@@@@@@@@@@@++++++++++++++++++++     $$$$$",
"$$$$$$$$$$     @@@@@@@@@@@@@@@@@@@@@@@@@@@@@@@@@@@++++++++++++++++++++     $$$$$",
"$$$$$     @@@@@XXXXX@@@@@@@@@@@@@@@@@@@@@@@@@@@@@@+++++++++++++++          $$$$$",
"$$$$$     @@@@@XXXXX@@@@@@@@@@@@@@@@@@@@@@@@@@@@@@+++++++++++++++          $$$$$",
"$$$$$     @@@@@XXXXX@@@@@@@@@@@@@@@@@@@@@@@@@@@@@@+++++++++++++++          $$$$$",
"$$$$$     @@@@@XXXXX@@@@@@@@@@@@@@@@@@@@@@@@@@@@@@+++++++++++++++          $$$$$",
"$$$$$     @@@@@XXXXX@@@@@@@@@@@@@@@@@@@@@@@@@@@@@@+++++++++++++++          $$$$$",
"$$$$$     XXXXX@@@@@XXXXX@@@@@@@@@@@@@@@@@@@@XXXXXXXXXX               $$$$$$$$$$",
"$$$$$     XXXXX@@@@@XXXXX@@@@@@@@@@@@@@@@@@@@XXXXXXXXXX               $$$$$$$$$$",
"$$$$$     XXXXX@@@@@XXXXX@@@@@@@@@@@@@@@@@@@@XXXXXXXXXX               $$$$$$$$$$",
"$$$$$     XXXXX@@@@@XXXXX@@@@@@@@@@@@@@@@@@@@XXXXXXXXXX               $$$$$$$$$$",
"$$$$$     XXXXX@@@@@XXXXX@@@@@@@@@@@@@@@@@@@@XXXXXXXXXX               $$$$$$$$$$",
"$$$$$     XXXXX@@@@@@@@@@XXXXXXXXXXXXXXXXXXXX                    @@@@@     $$$$$",
"$$$$$     XXXXX@@@@@@@@@@XXXXXXXXXXXXXXXXXXXX                    @@@@@     $$$$$",
"$$$$$     XXXXX@@@@@@@@@@XXXXXXXXXXXXXXXXXXXX                    @@@@@     $$$$$",
"$$$$$     XXXXX@@@@@@@@@@XXXXXXXXXXXXXXXXXXXX                    @@@@@     $$$$$",
"$$$$$     XXXXX@@@@@@@@@@XXXXXXXXXXXXXXXXXXXX                    @@@@@     $$$$$",
"$$$$$     @@@@@XXXXX@@@@@@@@@@@@@@@@@@@@@@@@@               @@@@@@@@@@     $$$$$",
"$$$$$     @@@@@XXXXX@@@@@@@@@@@@@@@@@@@@@@@@@               @@@@@@@@@@     $$$$$",
"$$$$$     @@@@@XXXXX@@@@@@@@@@@@@@@@@@@@@@@@@               @@@@@@@@@@     $$$$$",
"$$$$$     @@@@@XXXXX@@@@@@@@@@@@@@@@@@@@@@@@@               @@@@@@@@@@     $$$$$",
"$$$$$     @@@@@XXXXX@@@@@@@@@@@@@@@@@@@@@@@@@               @@@@@@@@@@     $$$$$",
"$$$$$     @@@@@@@@@@XXXXXXXXXXXXXXXXXXXXXXXXXXXXXXXXXXXXXXXXXXXXX     $$$$$$$$$$",
"$$$$$     @@@@@@@@@@XXXXXXXXXXXXXXXXXXXXXXXXXXXXXXXXXXXXXXXXXXXXX     $$$$$$$$$$",
"$$$$$     @@@@@@@@@@XXXXXXXXXXXXXXXXXXXXXXXXXXXXXXXXXXXXXXXXXXXXX     $$$$$$$$$$",
"$$$$$     @@@@@@@@@@XXXXXXXXXXXXXXXXXXXXXXXXXXXXXXXXXXXXXXXXXXXXX     $$$$$$$$$$",
"$$$$$     @@@@@@@@@@XXXXXXXXXXXXXXXXXXXXXXXXXXXXXXXXXXXXXXXXXXXXX     $$$$$$$$$$",
"$$$$$$$$$$     @@@@@@@@@@@@@@@@@@@@@@@@@@@@@@.....               $$$$$$$$$$$$$$$",
"$$$$$$$$$$     @@@@@@@@@@@@@@@@@@@@@@@@@@@@@@.....               $$$$$$$$$$$$$$$",
"$$$$$$$$$$     @@@@@@@@@@@@@@@@@@@@@@@@@@@@@@.....               $$$$$$$$$$$$$$$",
"$$$$$$$$$$     @@@@@@@@@@@@@@@@@@@@@@@@@@@@@@.....               $$$$$$$$$$$$$$$",
"$$$$$$$$$$     @@@@@@@@@@@@@@@@@@@@@@@@@@@@@@.....               $$$$$$$$$$$$$$$",
"$$$$$$$$$$$$$$$     ...................................     $$$$$$$$$$$$$$$$$$$$",
"$$$$$$$$$$$$$$$     ...................................     $$$$$$$$$$$$$$$$$$$$",
"$$$$$$$$$$$$$$$     ...................................     $$$$$$$$$$$$$$$$$$$$",
"$$$$$$$$$$$$$$$     ...................................     $$$$$$$$$$$$$$$$$$$$",
"$$$$$$$$$$$$$$$     ...................................     $$$$$$$$$$$$$$$$$$$$",
"$$$$$$$$$$$$$$$     @@@@@     oooooooooo     @@@@@@@@@@     $$$$$$$$$$$$$$$$$$$$",
"$$$$$$$$$$$$$$$     @@@@@     oooooooooo     @@@@@@@@@@     $$$$$$$$$$$$$$$$$$$$",
"$$$$$$$$$$$$$$$     @@@@@     oooooooooo     @@@@@@@@@@     $$$$$$$$$$$$$$$$$$$$",
"$$$$$$$$$$$$$$$     @@@@@     oooooooooo     @@@@@@@@@@     $$$$$$$$$$$$$$$$$$$$",
"$$$$$$$$$$$$$$$     @@@@@     oooooooooo     @@@@@@@@@@     $$$$$$$$$$$$$$$$$$$$",
"$$$$$$$$$$$$$$$     .....     OOOOOOOOOO     XXXXX.....     $$$$$$$$$$$$$$$$$$$$",
"$$$$$$$$$$$$$$$     .....     OOOOOOOOOO     XXXXX.....     $$$$$$$$$$$$$$$$$$$$",
"$$$$$$$$$$$$$$$     .....     OOOOOOOOOO     XXXXX.....     $$$$$$$$$$$$$$$$$$$$",
"$$$$$$$$$$$$$$$     .....     OOOOOOOOOO     XXXXX.....     $$$$$$$$$$$$$$$$$$$$",
"$$$$$$$$$$$$$$$     .....     OOOOOOOOOO     XXXXX.....     $$$$$$$$$$$$$$$$$$$$",
"$$$$$$$$$$$$$$$$$$$$     XXXXX          XXXXXXXXXX     $$$$$$$$$$$$$$$$$$$$$$$$$",
"$$$$$$$$$$$$$$$$$$$$     XXXXX          XXXXXXXXXX     $$$$$$$$$$$$$$$$$$$$$$$$$",
"$$$$$$$$$$$$$$$$$$$$     XXXXX          XXXXXXXXXX     $$$$$$$$$$$$$$$$$$$$$$$$$",
"$$$$$$$$$$$$$$$$$$$$     XXXXX          XXXXXXXXXX     $$$$$$$$$$$$$$$$$$$$$$$$$",
"$$$$$$$$$$$$$$$$$$$$     XXXXX          XXXXXXXXXX     $$$$$$$$$$$$$$$$$$$$$$$$$"
};
