/* XPM */
static char *pup[] = {
/* columns rows colors chars-per-pixel */
"80 80 8 1 ",
"  c #141B1B",
". c #3B3643",
"X c #5F7160",
"o c #D14B34",
"O c #F1C471",
"+ c #79B8CE",
"@ c #F2EAF1",
"# c None",
/* pixels */
"################################################################################",
"################################################################################",
"################################################################################",
"################################################################################",
"################################################################################",
"####################                                        ####################",
"####################                                        ####################",
"####################                                        ####################",
"####################                                        ####################",
"####################                                        ####################",
"###############     +++++@@@@@@@@@@@@@@@@@@@@@@@@@@@@@@+++++     ###############",
"###############     +++++@@@@@@@@@@@@@@@@@@@@@@@@@@@@@@+++++     ###############",
"###############     +++++@@@@@@@@@@@@@@@@@@@@@@@@@@@@@@+++++     ###############",
"###############     +++++@@@@@@@@@@@@@@@@@@@@@@@@@@@@@@+++++     ###############",
"###############     +++++@@@@@@@@@@@@@@@@@@@@@@@@@@@@@@+++++     ###############",
"##########     ++++++++++@@@@@@@@@@@@@@@@@@@@@@@@@@@@@@++++++++++     ##########",
"##########     ++++++++++@@@@@@@@@@@@@@@@@@@@@@@@@@@@@@++++++++++     ##########",
"##########     ++++++++++@@@@@@@@@@@@@@@@@@@@@@@@@@@@@@++++++++++     ##########",
"##########     ++++++++++@@@@@@@@@@@@@@@@@@@@@@@@@@@@@@++++++++++     ##########",
"##########     ++++++++++@@@@@@@@@@@@@@@@@@@@@@@@@@@@@@++++++++++     ##########",
"##########     +++++++++++++++@@@@@@@@@@@@@@@@@@@@+++++++++++++++     ##########",
"##########     +++++++++++++++@@@@@@@@@@@@@@@@@@@@+++++++++++++++     ##########",
"##########     +++++++++++++++@@@@@@@@@@@@@@@@@@@@+++++++++++++++     ##########",
"##########     +++++++++++++++@@@@@@@@@@@@@@@@@@@@+++++++++++++++     ##########",
"##########     +++++++++++++++@@@@@@@@@@@@@@@@@@@@+++++++++++++++     ##########",
"##########     +++++OOOOO++++++++++++++++++++++++++++++OOOOO+++++     ##########",
"##########     +++++OOOOO++++++++++++++++++++++++++++++OOOOO+++++     ##########",
"##########     +++++OOOOO++++++++++++++++++++++++++++++OOOOO+++++     ##########",
"##########     +++++OOOOO++++++++++++++++++++++++++++++OOOOO+++++     ##########",
"##########     +++++OOOOO++++++++++++++++++++++++++++++OOOOO+++++     ##########",
"#####     XXXXX+++++OOOOOOOOOOOOOOOOOOOOOOOOOOOOOOOOOOOOOOOO+++++XXXXX     #####",
"#####     XXXXX+++++OOOOOOOOOOOOOOOOOOOOOOOOOOOOOOOOOOOOOOOO+++++XXXXX     #####",
"#####     XXXXX+++++OOOOOOOOOOOOOOOOOOOOOOOOOOOOOOOOOOOOOOOO+++++XXXXX     #####",
"#####     XXXXX+++++OOOOOOOOOOOOOOOOOOOOOOOOOOOOOOOOOOOOOOOO+++++XXXXX     #####",
"#####     XXXXX+++++OOOOOOOOOOOOOOOOOOOOOOOOOOOOOOOOOOOOOOOO+++++XXXXX     #####",
"#####     +++++XXXXX+++++OOOOOOOOOOOOOOOOOOOOOOOOOOOOOO+++++XXXXX+++++     #####",
"#####     +++++XXXXX+++++OOOOOOOOOOOOOOOOOOOOOOOOOOOOOO+++++XXXXX+++++     #####",
"#####     +++++XXXXX+++++OOOOOOOOOOOOOOOOOOOOOOOOOOOOOO+++++XXXXX+++++     #####",
"#####     +++++XXXXX+++++OOOOOOOOOOOOOOOOOOOOOOOOOOOOOO+++++XXXXX+++++     #####",
"#####     +++++XXXXX+++++OOOOOOOOOOOOOOOOOOOOOOOOOOOOOO+++++XXXXX+++++     #####",
"     XXXXX++++++++++XXXXX..............................XXXXX+++++XXXXX+++++     ",
"     XXXXX++++++++++XXXXX..............................XXXXX+++++XXXXX+++++     ",
"     XXXXX++++++++++XXXXX..............................XXXXX+++++XXXXX+++++     ",
"     XXXXX++++++++++XXXXX..............................XXXXX+++++XXXXX+++++     ",
"     XXXXX++++++++++XXXXX..............................XXXXX+++++XXXXX+++++     ",
"     +++++XXXXX++++++++++XXXXXXXXXXXXXXXXXXXXXXXXXXXXXX++++++++++XXXXX+++++     ",
"     +++++XXXXX++++++++++XXXXXXXXXXXXXXXXXXXXXXXXXXXXXX++++++++++XXXXX+++++     ",
"     +++++XXXXX++++++++++XXXXXXXXXXXXXXXXXXXXXXXXXXXXXX++++++++++XXXXX+++++     ",
"     +++++XXXXX++++++++++XXXXXXXXXXXXXXXXXXXXXXXXXXXXXX++++++++++XXXXX+++++     ",
"     +++++XXXXX++++++++++XXXXXXXXXXXXXXXXXXXXXXXXXXXXXX++++++++++XXXXX+++++     ",
"     ++++++++++XXXXX........................................XXXXX++++++++++     ",
"     ++++++++++XXXXX........................................XXXXX++++++++++     ",
"     ++++++++++XXXXX........................................XXXXX++++++++++     ",
"     ++++++++++XXXXX........................................XXXXX++++++++++     ",
"     ++++++++++XXXXX........................................XXXXX++++++++++     ",
"#####     +++++XXXXXXXXXXXXXXXXXXXXXXXXXXXXXXXXXXXXXXXXXXXXXXXXXX+++++     #####",
"#####     +++++XXXXXXXXXXXXXXXXXXXXXXXXXXXXXXXXXXXXXXXXXXXXXXXXXX+++++     #####",
"#####     +++++XXXXXXXXXXXXXXXXXXXXXXXXXXXXXXXXXXXXXXXXXXXXXXXXXX+++++     #####",
"#####     +++++XXXXXXXXXXXXXXXXXXXXXXXXXXXXXXXXXXXXXXXXXXXXXXXXXX+++++     #####",
"#####     +++++XXXXXXXXXXXXXXXXXXXXXXXXXXXXXXXXXXXXXXXXXXXXXXXXXX+++++     #####",
"##########          .....XXXXXXXXXXXXXXXXXXXXXXXXXXXXXX.....          ##########",
"##########          .....XXXXXXXXXXXXXXXXXXXXXXXXXXXXXX.....          ##########",
"##########          .....XXXXXXXXXXXXXXXXXXXXXXXXXXXXXX.....          ##########",
"##########          .....XXXXXXXXXXXXXXXXXXXXXXXXXXXXXX.....          ##########",
"##########          .....XXXXXXXXXXXXXXXXXXXXXXXXXXXXXX.....          ##########",
"#####     ooooooooooXXXXX..............................XXXXXoooooooooo     #####",
"#####     ooooooooooXXXXX..............................XXXXXoooooooooo     #####",
"#####     ooooooooooXXXXX..............................XXXXXoooooooooo     #####",
"#####     ooooooooooXXXXX..............................XXXXXoooooooooo     #####",
"#####     ooooooooooXXXXX..............................XXXXXoooooooooo     #####",
"#####     oooooooooo     ..............................     oooooooooo     #####",
"#####     oooooooooo     ..............................     oooooooooo     #####",
"#####     oooooooooo     ..............................     oooooooooo     #####",
"#####     oooooooooo     ..............................     oooooooooo     #####",
"#####     oooooooooo     ..............................     oooooooooo     #####",
"##########          XXXXXXXXXXXXXXX          XXXXXXXXXXXXXXX          ##########",
"##########          XXXXXXXXXXXXXXX          XXXXXXXXXXXXXXX          ##########",
"##########          XXXXXXXXXXXXXXX          XXXXXXXXXXXXXXX          ##########",
"##########          XXXXXXXXXXXXXXX          XXXXXXXXXXXXXXX          ##########",
"##########          XXXXXXXXXXXXXXX          XXXXXXXXXXXXXXX          ##########"
};
