/* XPM */
static char *result[] = {
/* columns rows colors chars-per-pixel */
"80 80 6 1 ",
"  c #141B1B",
". c #5F7160",
"X c #8D977F",
"o c #ABC2BC",
"O c white",
"+ c None",
/* pixels */
"++++++++++++++++++++++++++++++++++++++++++++++++++++++++++++++++++++++++++++++++",
"++++++++++++++++++++++++++++++++++++++++++++++++++++++++++++++++++++++++++++++++",
"++++++++++++++++++++++++++++++++++++++++++++++++++++++++++++++++++++++++++++++++",
"++++++++++++++++++++++++++++++++++++++++++++++++++++++++++++++++++++++++++++++++",
"++++++++++++++++++++++++++++++++++++++++++++++++++++++++++++++++++++++++++++++++",
"++++++++++++++++++++++++++++++                    ++++++++++++++++++++++++++++++",
"++++++++++++++++++++++++++++++                    ++++++++++++++++++++++++++++++",
"++++++++++++++++++++++++++++++                    ++++++++++++++++++++++++++++++",
"++++++++++++++++++++++++++++++                    ++++++++++++++++++++++++++++++",
"++++++++++++++++++++++++++++++                    ++++++++++++++++++++++++++++++",
"+++++++++++++++++++++++++     OOOOOOOOOOOOOOOOOOOO     +++++++++++++++++++++++++",
"+++++++++++++++++++++++++     OOOOOOOOOOOOOOOOOOOO     +++++++++++++++++++++++++",
"+++++++++++++++++++++++++     OOOOOOOOOOOOOOOOOOOO     +++++++++++++++++++++++++",
"+++++++++++++++++++++++++     OOOOOOOOOOOOOOOOOOOO     +++++++++++++++++++++++++",
"+++++++++++++++++++++++++     OOOOOOOOOOOOOOOOOOOO     +++++++++++++++++++++++++",
"++++++++++++++++++++     OOOOOOOOOOOOOOOOOOOOOOOOOooooo     ++++++++++++++++++++",
"++++++++++++++++++++     OOOOOOOOOOOOOOOOOOOOOOOOOooooo     ++++++++++++++++++++",
"++++++++++++++++++++     OOOOOOOOOOOOOOOOOOOOOOOOOooooo     ++++++++++++++++++++",
"++++++++++++++++++++     OOOOOOOOOOOOOOOOOOOOOOOOOooooo     ++++++++++++++++++++",
"++++++++++++++++++++     OOOOOOOOOOOOOOOOOOOOOOOOOooooo     ++++++++++++++++++++",
"+++++++++++++++     OOOOOoooooOOOOOOOOOOOOOOOOOOOOoooooooooo     +++++++++++++++",
"+++++++++++++++     OOOOOoooooOOOOOOOOOOOOOOOOOOOOoooooooooo     +++++++++++++++",
"+++++++++++++++     OOOOOoooooOOOOOOOOOOOOOOOOOOOOoooooooooo     +++++++++++++++",
"+++++++++++++++     OOOOOoooooOOOOOOOOOOOOOOOOOOOOoooooooooo     +++++++++++++++",
"+++++++++++++++     OOOOOoooooOOOOOOOOOOOOOOOOOOOOoooooooooo     +++++++++++++++",
"++++++++++     OOOOOooooooooooOOOOOOOOOOOOOOOOOOOOoooooXXXXXooooo     ++++++++++",
"++++++++++     OOOOOooooooooooOOOOOOOOOOOOOOOOOOOOoooooXXXXXooooo     ++++++++++",
"++++++++++     OOOOOooooooooooOOOOOOOOOOOOOOOOOOOOoooooXXXXXooooo     ++++++++++",
"++++++++++     OOOOOooooooooooOOOOOOOOOOOOOOOOOOOOoooooXXXXXooooo     ++++++++++",
"++++++++++     OOOOOooooooooooOOOOOOOOOOOOOOOOOOOOoooooXXXXXooooo     ++++++++++",
"+++++     OOOOOooooooooooooooooooooooooooooooooooooooooXXXXXXXXXXooooo     +++++",
"+++++     OOOOOooooooooooooooooooooooooooooooooooooooooXXXXXXXXXXooooo     +++++",
"+++++     OOOOOooooooooooooooooooooooooooooooooooooooooXXXXXXXXXXooooo     +++++",
"+++++     OOOOOooooooooooooooooooooooooooooooooooooooooXXXXXXXXXXooooo     +++++",
"+++++     OOOOOooooooooooooooooooooooooooooooooooooooooXXXXXXXXXXooooo     +++++",
"+++++     OOOOOoooooooooooooooXXXXXXXXXXooooo.....ooooooooooXXXXXooooo     +++++",
"+++++     OOOOOoooooooooooooooXXXXXXXXXXooooo.....ooooooooooXXXXXooooo     +++++",
"+++++     OOOOOoooooooooooooooXXXXXXXXXXooooo.....ooooooooooXXXXXooooo     +++++",
"+++++     OOOOOoooooooooooooooXXXXXXXXXXooooo.....ooooooooooXXXXXooooo     +++++",
"+++++     OOOOOoooooooooooooooXXXXXXXXXXooooo.....ooooooooooXXXXXooooo     +++++",
"+++++     OOOOOoooooXXXXXXXXXXXXXXXXXXXXooooo...............oooooooooo     +++++",
"+++++     OOOOOoooooXXXXXXXXXXXXXXXXXXXXooooo...............oooooooooo     +++++",
"+++++     OOOOOoooooXXXXXXXXXXXXXXXXXXXXooooo...............oooooooooo     +++++",
"+++++     OOOOOoooooXXXXXXXXXXXXXXXXXXXXooooo...............oooooooooo     +++++",
"+++++     OOOOOoooooXXXXXXXXXXXXXXXXXXXXooooo...............oooooooooo     +++++",
"+++++     OOOOOXXXXXXXXXXXXXXXXXXXXXXXXXooooo....................ooooo     +++++",
"+++++     OOOOOXXXXXXXXXXXXXXXXXXXXXXXXXooooo....................ooooo     +++++",
"+++++     OOOOOXXXXXXXXXXXXXXXXXXXXXXXXXooooo....................ooooo     +++++",
"+++++     OOOOOXXXXXXXXXXXXXXXXXXXXXXXXXooooo....................ooooo     +++++",
"+++++     OOOOOXXXXXXXXXXXXXXXXXXXXXXXXXooooo....................ooooo     +++++",
"+++++     oooooXXXXXXXXXXXXXXXXXXXXXXXXXooooo....................XXXXX     +++++",
"+++++     oooooXXXXXXXXXXXXXXXXXXXXXXXXXooooo....................XXXXX     +++++",
"+++++     oooooXXXXXXXXXXXXXXXXXXXXXXXXXooooo....................XXXXX     +++++",
"+++++     oooooXXXXXXXXXXXXXXXXXXXXXXXXXooooo....................XXXXX     +++++",
"+++++     oooooXXXXXXXXXXXXXXXXXXXXXXXXXooooo....................XXXXX     +++++",
"++++++++++oooooXXXXXXXXXXXXXXXXXXXXXXXXXooooo....................XXXXX++++++++++",
"++++++++++oooooXXXXXXXXXXXXXXXXXXXXXXXXXooooo....................XXXXX++++++++++",
"++++++++++oooooXXXXXXXXXXXXXXXXXXXXXXXXXooooo....................XXXXX++++++++++",
"++++++++++oooooXXXXXXXXXXXXXXXXXXXXXXXXXooooo....................XXXXX++++++++++",
"++++++++++oooooXXXXXXXXXXXXXXXXXXXXXXXXXooooo....................XXXXX++++++++++",
"+++++++++++++++XXXXXXXXXXXXXXXXXXXXXXXXXooooo....................+++++++++++++++",
"+++++++++++++++XXXXXXXXXXXXXXXXXXXXXXXXXooooo....................+++++++++++++++",
"+++++++++++++++XXXXXXXXXXXXXXXXXXXXXXXXXooooo....................+++++++++++++++",
"+++++++++++++++XXXXXXXXXXXXXXXXXXXXXXXXXooooo....................+++++++++++++++",
"+++++++++++++++XXXXXXXXXXXXXXXXXXXXXXXXXooooo....................+++++++++++++++",
"++++++++++++++++++++XXXXXXXXXXXXXXXXXXXXooooo...............++++++++++++++++++++",
"++++++++++++++++++++XXXXXXXXXXXXXXXXXXXXooooo...............++++++++++++++++++++",
"++++++++++++++++++++XXXXXXXXXXXXXXXXXXXXooooo...............++++++++++++++++++++",
"++++++++++++++++++++XXXXXXXXXXXXXXXXXXXXooooo...............++++++++++++++++++++",
"++++++++++++++++++++XXXXXXXXXXXXXXXXXXXXooooo...............++++++++++++++++++++",
"+++++++++++++++++++++++++XXXXXXXXXXXXXXXooooo..........+++++++++++++++++++++++++",
"+++++++++++++++++++++++++XXXXXXXXXXXXXXXooooo..........+++++++++++++++++++++++++",
"+++++++++++++++++++++++++XXXXXXXXXXXXXXXooooo..........+++++++++++++++++++++++++",
"+++++++++++++++++++++++++XXXXXXXXXXXXXXXooooo..........+++++++++++++++++++++++++",
"+++++++++++++++++++++++++XXXXXXXXXXXXXXXooooo..........+++++++++++++++++++++++++",
"++++++++++++++++++++++++++++++++++++++++++++++++++++++++++++++++++++++++++++++++",
"++++++++++++++++++++++++++++++++++++++++++++++++++++++++++++++++++++++++++++++++",
"++++++++++++++++++++++++++++++++++++++++++++++++++++++++++++++++++++++++++++++++",
"++++++++++++++++++++++++++++++++++++++++++++++++++++++++++++++++++++++++++++++++",
"++++++++++++++++++++++++++++++++++++++++++++++++++++++++++++++++++++++++++++++++"
};
